PathFileType	4	(X/Y/Z)	s07c0102.trc
DataRate	CameraRate	NumFrames	NumMarkers	Units	OrigDataRate	OrigDataStartFrame	OrigNumFrames
200	200	6	48	mm	200	0	2000
Frame#	Time	racr			lacr			c7			jug			rlel			rdr			llel			ldr			s2			lic			ric			lasi			rasi			rpsi			lpsi			rgt			lgt			rth1			rth2			rth3			rth4			rlfc			rmfc			rsh1			rsh2			rsh3			rsh4			rlmal			rcal			rtoe			rmt5			lth1			lth2			lth4			lth3			llfc			lmfc			lsh1			lsh2			lsh3			lsh4			llmal			lcal			ltoe			lmt5			SBIKE			LBIKE			RBIKE			
		X1	Y1	Z1	X2	Y2	Z2	X3	Y3	Z3	X4	Y4	Z4	X5	Y5	Z5	X6	Y6	Z6	X7	Y7	Z7	X8	Y8	Z8	X9	Y9	Z9	X10	Y10	Z10	X11	Y11	Z11	X12	Y12	Z12	X13	Y13	Z13	X14	Y14	Z14	X15	Y15	Z15	X16	Y16	Z16	X17	Y17	Z17	X18	Y18	Z18	X19	Y19	Z19	X20	Y20	Z20	X21	Y21	Z21	X22	Y22	Z22	X23	Y23	Z23	X24	Y24	Z24	X25	Y25	Z25	X26	Y26	Z26	X27	Y27	Z27	X28	Y28	Z28	X29	Y29	Z29	X30	Y30	Z30	X31	Y31	Z31	X32	Y32	Z32	X33	Y33	Z33	X34	Y34	Z34	X35	Y35	Z35	X36	Y36	Z36	X37	Y37	Z37	X38	Y38	Z38	X39	Y39	Z39	X40	Y40	Z40	X41	Y41	Z41	X42	Y42	Z42	X43	Y43	Z43	X44	Y44	Z44	X45	Y45	Z45	X46	Y46	Z46	X47	Y47	Z47	X48	Y48	Z48	
0	0.0000	464.836204	1384.258645	-88.103968	457.973014	1370.458715	-385.324140	441.548769	1428.128522	-238.109316	390.882402	1292.141136	-233.285638	476.706670	1056.231479	31.354889	717.080632	916.088936	-69.478563	471.477544	1057.029919	-516.143073	717.590855	913.686639	-422.245091	-133.833353	1212.813696	-251.686135	36.671266	1245.946948	-389.766740	34.923086	1238.465618	-95.649342	62.239427	1162.867702	-362.580788	41.682988	1181.272252	-113.628246	-106.421104	1249.819431	-199.028064	-89.246631	1257.221861	-306.841400	-32.304728	1129.675139	-50.394754	-31.850670	1096.071380	-420.171787	107.602397	1073.371182	-53.747197	193.397504	1061.797143	-67.186460	263.578266	1012.871911	-66.488557	203.720820	1091.990053	-86.342017	385.095133	936.230678	-102.104922	377.601018	920.635468	-207.927990	333.663095	803.285556	-76.443050	318.649742	716.373310	-94.709114	267.476430	646.953741	-87.892528	333.371932	714.225508	-131.355073	206.843252	524.285192	-87.114097	136.602836	488.602505	-113.181634	423.247331	443.902555	-132.645018	345.124689	417.850112	-60.178632	23.891992	986.382320	-426.897581	90.916463	929.994107	-429.346014	120.970661	949.124395	-420.120454	120.653833	844.992714	-423.875108	206.001678	687.102512	-389.786039	192.915969	671.563147	-293.422544	116.588234	565.940842	-412.028054	83.772301	488.874275	-391.288839	15.377098	431.003070	-400.587108	86.165212	490.721421	-349.834849	-70.391696	324.891445	-398.051182	-147.015500	294.218478	-365.362790	136.272848	235.813504	-358.306819	54.100390	222.181297	-423.339797	-263.798062	970.658579	-238.398872	-83.327917	79.078880	-437.724952	-83.015909	78.653939	-40.057284	
1	0.0050	464.863482	1384.249174	-88.099045	457.993488	1370.433059	-385.338124	441.549986	1428.150850	-238.134214	390.871880	1292.064435	-233.361177	476.693186	1056.217866	31.360633	717.062910	916.087693	-69.486729	471.464543	1057.000009	-516.167141	717.574899	913.694136	-422.264058	-133.843264	1212.823775	-251.667430	36.642655	1245.930869	-389.763419	34.938233	1238.445875	-95.634212	62.238133	1162.840313	-362.573312	41.671447	1181.272968	-113.629814	-106.426298	1249.844620	-199.023836	-89.255092	1257.243068	-306.844644	-32.323055	1129.664609	-50.385905	-31.848580	1096.092540	-420.167675	107.603284	1073.331521	-53.758020	193.392396	1061.765044	-67.185909	263.553271	1012.835033	-66.489875	203.710879	1091.955072	-86.336776	385.058922	936.154195	-102.129337	377.561977	920.570692	-207.941601	333.622891	803.240453	-76.472692	318.606900	716.316445	-94.742946	267.419489	646.911853	-87.900245	333.322001	714.179228	-131.368500	206.760615	524.244812	-87.129538	136.548395	488.519067	-113.211741	423.211457	443.943151	-132.644348	345.091137	417.857923	-60.175790	23.893940	986.400682	-426.904396	90.920323	930.021770	-429.362512	120.972910	949.152719	-420.143981	120.651117	845.014558	-423.893659	205.993189	687.115790	-389.812612	192.916878	671.570375	-293.443909	116.571591	565.956464	-412.064093	83.772099	488.868897	-391.310361	15.377062	430.977720	-400.621889	86.143209	490.694371	-349.862788	-70.371738	324.853785	-398.066225	-147.008661	294.216378	-365.380103	136.279787	235.805051	-358.300871	54.118129	222.155200	-423.332789	-263.799255	970.662143	-238.402520	-83.326267	79.104530	-437.731684	-83.028047	78.660679	-40.045061	
2	0.0100	464.887922	1384.227384	-88.128918	458.003137	1370.414059	-385.393530	441.539791	1428.152904	-238.148235	390.858413	1291.984200	-233.376512	476.677319	1056.204108	31.352249	717.043299	916.081444	-69.477119	471.445905	1056.959519	-516.199336	717.568831	913.695774	-422.282924	-133.858257	1212.830207	-251.659191	36.658742	1245.934564	-389.784037	34.934249	1238.460403	-95.610223	62.237877	1162.841902	-362.573141	41.677832	1181.260703	-113.611631	-106.428520	1249.842950	-199.008182	-89.263412	1257.242861	-306.829082	-32.330701	1129.662261	-50.376841	-31.863444	1096.118915	-420.178857	107.583593	1073.300080	-53.752757	193.360200	1061.709266	-67.185115	263.562688	1012.786542	-66.486701	203.702557	1091.895865	-86.325151	385.038702	936.108185	-102.140211	377.513317	920.525447	-207.943446	333.556933	803.195257	-76.463677	318.537804	716.274571	-94.749314	267.358507	646.870263	-87.908642	333.264309	714.141131	-131.375556	206.681706	524.200238	-87.119369	136.495278	488.448797	-113.219494	423.182325	443.990721	-132.650979	345.067652	417.873685	-60.180279	23.890043	986.428029	-426.910132	90.913170	930.045486	-429.383019	120.973639	949.167461	-420.140818	120.651462	845.032308	-423.918602	205.974973	687.123563	-389.840333	192.905351	671.577114	-293.465265	116.565473	565.944697	-412.074824	83.770890	488.874866	-391.332469	15.366071	430.991948	-400.642080	86.156593	490.685548	-349.881002	-70.376863	324.862165	-398.085359	-146.997806	294.213330	-365.379774	136.276268	235.804576	-358.314510	54.110492	222.148454	-423.332922	-263.800043	970.661744	-238.405722	-83.334215	79.102223	-437.740190	-83.037682	78.653322	-40.063192	
3	0.0150	464.895119	1384.210311	-88.127298	457.683067	1368.051548	-377.194079	441.515220	1428.158008	-238.162357	390.825703	1291.872716	-233.367916	476.653029	1056.192947	31.335175	717.027127	916.074590	-69.490788	471.424443	1056.924253	-516.222012	717.537289	913.699419	-422.278563	-133.857379	1212.829914	-251.663934	30.586357	1241.964126	-377.124467	34.841272	1238.675343	-95.409949	62.223251	1162.828955	-362.573852	41.678713	1181.240053	-113.613633	-106.446033	1249.866449	-198.990199	-89.269119	1257.260881	-306.833623	-32.333519	1129.646216	-50.393946	-31.552031	1096.103812	-419.280766	107.665993	1073.106380	-53.714484	193.335106	1061.653241	-67.172706	263.463471	1012.676601	-66.548040	203.573424	1091.626756	-86.641776	385.001039	936.063824	-102.145035	377.481288	920.480669	-207.947220	333.523478	803.132029	-76.463273	317.991611	715.895186	-94.951148	267.354011	646.725866	-87.895510	333.460312	714.315275	-130.968923	206.129797	524.832304	-86.613769	138.074445	490.939953	-117.218424	423.191136	444.028143	-132.671090	344.999441	417.588812	-60.325581	23.889994	986.449442	-426.911053	91.172208	929.204513	-428.604645	120.983760	949.263743	-420.310899	120.457069	845.338677	-423.760254	205.966555	687.138123	-389.854986	193.181032	671.581618	-293.347275	116.645294	565.908164	-412.125814	83.883302	488.559471	-391.496098	15.362587	430.981046	-400.648775	86.394835	490.493993	-349.689779	-70.401085	325.212736	-398.575928	-147.010152	294.226913	-365.397401	136.273437	235.802675	-358.307909	54.102613	222.153230	-423.340434	-263.917410	970.700154	-238.815402	-83.337118	79.101422	-437.733416	-83.035777	78.649353	-40.043215	
4	0.0200	464.871614	1384.462416	-88.028883	453.130577	1365.082637	-371.089831	441.881276	1426.485996	-230.230544	390.800972	1291.879808	-233.366793	476.397448	1056.366041	31.406618	716.965353	916.067294	-69.595425	473.570231	1055.275081	-511.724618	717.410402	913.512118	-422.121991	-133.782481	1212.833558	-251.844624	30.491803	1241.144658	-375.634143	34.800431	1238.812822	-95.693483	62.919827	1161.078595	-356.405542	41.673058	1181.235992	-113.592889	-106.435398	1249.993619	-198.992892	-89.202103	1257.273381	-306.936292	-32.441400	1129.946542	-50.283397	-30.349010	1093.836563	-413.068926	107.448132	1073.350954	-53.719877	193.335717	1061.648249	-67.195280	266.573559	1011.787342	-62.746069	203.608276	1091.728982	-86.588878	384.828232	936.281008	-102.005847	384.430811	918.588082	-201.267431	333.312427	803.315015	-76.409362	331.692098	716.475929	-88.718413	267.058070	646.974979	-87.785317	333.434724	714.288967	-130.957141	206.152743	524.701017	-86.619756	138.009023	490.761415	-117.225358	423.034735	444.300195	-132.648413	344.813208	417.964446	-60.114478	25.479966	984.039735	-420.323678	91.224017	929.205507	-428.567102	123.296445	946.083528	-413.204551	122.299748	842.234415	-416.782660	207.418747	683.933973	-383.465336	192.822973	671.974073	-293.239965	119.072469	563.850390	-407.476602	91.923540	486.629637	-385.074312	15.836241	430.558115	-399.720045	86.339712	490.853785	-349.643017	-72.297397	316.802826	-385.906210	-146.999647	294.175212	-365.287444	135.998885	236.623022	-357.670746	53.065485	214.108237	-411.918581	-263.877919	970.647811	-238.729464	-83.446916	79.081831	-437.800401	-83.295378	78.896900	-40.227746	
5	0.0250	464.839952	1384.390880	-88.112636	457.873377	1370.303755	-385.639481	441.387146	1427.899936	-237.877557	390.752603	1291.858535	-233.381891	476.318495	1056.318013	31.293881	716.976355	916.148778	-69.654821	471.462027	1056.990607	-516.441838	717.321546	913.411179	-422.084912	-133.751760	1212.833857	-251.875032	32.025939	1242.814133	-379.018192	34.793061	1238.917637	-95.733536	62.217110	1163.008675	-362.582573	41.688914	1181.199316	-113.622193	-106.499479	1250.027046	-198.982956	-89.193417	1257.284369	-306.876455	-32.466824	1129.951431	-50.282781	-31.839462	1096.234478	-420.397209	107.416289	1073.337793	-53.717666	193.324696	1061.579940	-67.190385	263.392360	1012.633956	-66.599841	203.635469	1091.675779	-86.563100	384.866899	936.108816	-101.941402	377.449920	920.435663	-208.152277	333.285556	803.263574	-76.390360	329.782079	717.975495	-89.327556	267.010606	646.920956	-87.720429	333.074003	714.400149	-131.377022	206.271492	524.453530	-86.916938	138.032944	490.759975	-117.303445	422.976462	444.320503	-132.614270	344.819098	417.961677	-60.119703	23.873616	986.463656	-426.971410	91.218089	929.247700	-428.571398	121.008955	949.361094	-420.304919	120.467365	845.395679	-424.017265	205.923229	687.230692	-389.898825	192.819792	671.991436	-293.243140	116.586135	566.072914	-412.237572	83.708891	488.746915	-391.522467	15.454399	430.904756	-400.934662	86.349399	490.749360	-349.690163	-70.423566	324.769719	-398.005578	-147.063247	294.060089	-365.210920	136.276616	235.771279	-358.286368	54.124822	222.135230	-423.347353	-263.884881	970.681299	-238.719521	-83.685948	78.949925	-437.951885	-83.345427	78.968022	-40.247802	
